<svg width="48" height="52" viewBox="0 0 48 52" fill="none" xmlns="http://www.w3.org/2000/svg">
<g clip-path="url(#clip0_15_32)">
<path d="M24.1109 47.0191C18.8707 42.2246 14.9569 37.7714 12.3693 33.6594C9.78178 29.5474 8.48801 25.7416 8.48801 22.242C8.48801 16.9926 10.0584 12.8106 13.1993 9.69593C16.3401 6.58129 19.9773 5.02397 24.1109 5.02397H25.0873C25.4128 5.02397 25.7383 5.05897 26.0637 5.12896V9.38097C25.7383 9.31097 25.4209 9.26723 25.1117 9.24973C24.8025 9.23223 24.4689 9.22348 24.1109 9.22348C20.8236 9.22348 18.0489 10.4396 15.7868 12.8718C13.5248 15.304 12.3937 18.4274 12.3937 22.242C12.3937 24.7267 13.3539 27.5701 15.2742 30.7722C17.1945 33.9744 20.1401 37.5352 24.1109 41.4547C28.0817 37.5352 31.0272 33.9744 32.9475 30.7722C34.8679 27.5701 35.828 24.7267 35.828 22.242V21.822H39.7337V22.242C39.7337 25.7416 38.44 29.5474 35.8524 33.6594C33.2649 37.7714 29.351 42.2246 24.1109 47.0191ZM24.1109 26.0215C25.1849 26.0215 26.1044 25.6103 26.8693 24.7879C27.6341 23.9655 28.0166 22.9769 28.0166 21.822C28.0166 20.6672 27.6341 19.6785 26.8693 18.8561C26.1044 18.0337 25.1849 17.6225 24.1109 17.6225C23.0368 17.6225 22.1173 18.0337 21.3525 18.8561C20.5876 19.6785 20.2052 20.6672 20.2052 21.822C20.2052 22.9769 20.5876 23.9655 21.3525 24.7879C22.1173 25.6103 23.0368 26.0215 24.1109 26.0215ZM35.828 17.6225H39.7337V11.3232H45.5923V7.12373H39.7337V0.824463H35.828V7.12373H29.9694V11.3232H35.828V17.6225Z" fill="#CAC2BB"/>
</g>
<defs>
<clipPath id="clip0_15_32">
<rect width="46.8686" height="50.3941" fill="white" transform="translate(0.676582 0.824463)"/>
</clipPath>
</defs>
</svg>
